# ProBuilder 5.0.7
# https://unity3d.com/unity/features/worldbuilding/probuilder
# 2/23/2026 11:13:27 PM

mtllib ./Mug.mtl
o Mug

g Mug
v -0.1767767 -0.25 0.1767767
v -0.25 -0.25 0
v -0.1767767 0.25 0.1767767
v -0.25 0.25 0
v -0.2 -0.25 0
v -0.1414213 -0.25 0.1414213
v -0.2 0.25 0
v -0.1414213 0.25 0.1414213
v 1.490116E-08 -0.25 0.25
v 1.490116E-08 0.25 0.25
v 1.490116E-08 -0.25 0.2
v 1.490116E-08 0.25 0.2
v 0.1767767 -0.25 0.1767767
v 0.1767767 0.25 0.1767767
v 0.1414213 -0.25 0.1414213
v 0.1414213 0.25 0.1414213
v 0.25 -0.25 -2.980232E-08
v 0.25 0.25 -2.980232E-08
v 0.2 -0.25 -2.980232E-08
v 0.2 0.25 -2.980232E-08
v 0.1767767 -0.25 -0.1767767
v 0.1767767 0.25 -0.1767767
v 0.1414214 -0.25 -0.1414214
v 0.1414214 0.25 -0.1414214
v 0 -0.25 -0.25
v 0 0.25 -0.25
v 0 -0.25 -0.2
v 0 0.25 -0.2
v -0.1767766 -0.25 -0.1767767
v -0.1767766 0.25 -0.1767767
v -0.1414213 -0.25 -0.1414214
v -0.1414213 0.25 -0.1414214
v -0.2341539 -0.2251983 8.940697E-08
v -0.4094278 -0.1577667 -8.940697E-08
v -0.2341541 -0.2178761 0.01767758
v -0.40425 -0.1525889 0.01767772
v -0.2341541 -0.2001984 0.02499995
v -0.3917501 -0.1400889 0.02500001
v -0.234154 -0.1825207 0.01767763
v -0.37925 -0.1275887 0.01767775
v -0.234154 -0.1751983 -5.960464E-08
v -0.3740725 -0.1224113 -5.960464E-08
v -0.2341541 -0.1825208 -0.01767777
v -0.37925 -0.1275889 -0.01767763
v -0.2341539 -0.2001982 -0.02499989
v -0.3917499 -0.1400888 -0.02499986
v -0.2341539 -0.2178758 -0.01767761
v -0.40425 -0.1525889 -0.01767766
v -0.4656005 -2.980232E-08 0
v -0.4582782 1.490116E-08 0.01767778
v -0.4406005 7.450581E-09 0.02500004
v -0.4229228 -3.72529E-08 0.01767769
v -0.4156004 8.940697E-08 8.940697E-08
v -0.4229228 5.960464E-08 -0.01767761
v -0.4406005 4.470348E-08 -0.02499989
v -0.4582782 -7.450581E-08 -0.01767766
v -0.3998307 0.1651306 2.980232E-08
v -0.3961695 0.1587893 0.01767766
v -0.3873307 0.1434801 0.02500007
v -0.3784918 0.1281708 0.01767775
v -0.3748307 0.1218294 2.980232E-08
v -0.3784918 0.1281707 -0.01767766
v -0.3873306 0.1434801 -0.02499986
v -0.3961695 0.1587894 -0.01767761
v -0.2391331 0.2269587 2.980232E-08
v -0.2391331 0.2196363 0.01767769
v -0.2391331 0.2019586 0.02500001
v -0.2391331 0.1842809 0.01767766
v -0.2391331 0.1769586 0
v -0.2391331 0.184281 -0.01767763
v -0.2391331 0.2019586 -0.02499995
v -0.2391331 0.2196364 -0.01767758
v -0.2341541 -0.2001984 -1.192093E-07
v -0.2391332 0.2019586 -2.980232E-08
v -0.2500001 -0.2625003 -1.490116E-07
v -0.25 -0.2375002 -5.960464E-08
v -0.1767766 -0.2625 0.1767767
v -0.1767766 -0.2375001 0.1767767
v 1.862645E-08 -0.2625 0.2500001
v -3.352761E-08 -0.2375 0.2500001
v 0.1767766 -0.2625002 0.1767766
v 0.1767766 -0.2375001 0.1767767
v 0.25 -0.2625 -5.960464E-08
v 0.25 -0.2375001 -1.192093E-07
v 0.1767767 -0.2625002 -0.1767768
v 0.1767766 -0.2375002 -0.1767768
v 1.639128E-07 -0.2625 -0.25
v 0 -0.2375002 -0.2500002
v -0.1767767 -0.2625002 -0.1767768
v -0.1767766 -0.2375001 -0.1767768
v -7.450581E-08 -0.2625001 -9.685755E-08
v 8.940697E-08 -0.2375001 -2.980232E-08

vt -0.6721997 0.05078131
vt -1.054883 0.05078131
vt -0.6721997 1.050781
vt -1.054883 1.050781
vt 1.016615 0.05078131
vt 0.7104681 0.05078131
vt 1.016615 1.050781
vt 0.7104681 1.050781
vt -0.527793 0.05078131
vt -0.9104764 0.05078131
vt -0.527793 1.050781
vt -0.9104764 1.050781
vt 0.8722081 0.05078131
vt 0.5660613 0.05078131
vt 0.8722081 1.050781
vt 0.5660613 1.050781
vt 0.03787314 0.05078131
vt -0.3448102 0.05078131
vt 0.03787314 1.050781
vt -0.3448102 1.050781
vt 0.3065419 0.05078131
vt 0.0003951603 0.05078131
vt 0.3065419 1.050781
vt 0.0003951603 1.050781
vt 0.6934391 0.05078131
vt 0.3107556 0.05078131
vt 0.6934391 1.050781
vt 0.3107556 1.050781
vt -0.349024 0.05078131
vt -0.6551707 0.05078131
vt -0.349024 1.050781
vt -0.6551707 1.050781
vt 1.054883 0.05078131
vt 0.6721998 0.05078131
vt 1.054883 1.050781
vt 0.6721998 1.050781
vt -0.7104681 0.05078131
vt -1.016615 0.05078131
vt -0.7104681 1.050781
vt -1.016615 1.050781
vt 0.9104764 0.05078131
vt 0.5277929 0.05078131
vt 0.9104764 1.050781
vt 0.5277929 1.050781
vt -0.5660612 0.05078131
vt -0.8722079 0.05078131
vt -0.5660612 1.050781
vt -0.8722079 1.050781
vt 0.3448102 0.05078131
vt -0.03787316 0.05078131
vt 0.3448102 1.050781
vt -0.03787316 1.050781
vt -0.306542 0.05078131
vt -0.306542 1.050781
vt -0.3107554 0.05078131
vt -0.6934389 0.05078131
vt -0.3107554 1.050781
vt -0.6934389 1.050781
vt 0.6551707 0.05078131
vt 0.3490238 0.05078131
vt 0.6551707 1.050781
vt 0.3490238 1.050781
vt -0.9722495 -0.7390784
vt -0.8258029 -0.385525
vt -0.8722495 -0.7390784
vt -0.7550922 -0.4562357
vt 0.8258029 -0.385525
vt 0.9722495 -0.7390784
vt 0.7550922 -0.4562357
vt 0.8722495 -0.7390784
vt -0.4722495 -0.2390784
vt -0.4722495 -0.3390784
vt 0.4722495 -0.2390784
vt 0.4722495 -0.3390784
vt -0.1186961 -0.385525
vt -0.1894068 -0.4562357
vt 0.1186961 -0.385525
vt 0.1894068 -0.4562357
vt 0.02775049 -0.7390785
vt -0.0722495 -0.7390785
vt -0.02775049 -0.7390785
vt 0.0722495 -0.7390785
vt -0.1186961 -1.092632
vt -0.1894068 -1.021921
vt 0.1186961 -1.092632
vt 0.1894068 -1.021921
vt -0.4722495 -1.239078
vt -0.4722495 -1.139078
vt 0.4722495 -1.239078
vt 0.4722495 -1.139078
vt -0.8258028 -1.092632
vt -0.7550921 -1.021921
vt 0.8258028 -1.092632
vt 0.7550921 -1.021921
vt -0.01913417 -0.5
vt -0.01913417 -0.25
vt 0.01913417 -0.5
vt 0.01913417 -0.25
vt -0.01913417 0
vt 0.01913417 0
vt -0.01913417 0.25
vt 0.01913417 0.25
vt -0.01913417 0.5
vt 0.01913417 0.5
vt -0.05 0
vt 0 0
vt -0.03535534 0.03535534
vt 0.05 0
vt 0.03535534 0.03535534
vt 2.18557E-09 0.05
vt 0.03535534 -0.03535534
vt -0.03535534 -0.03535534
vt -5.962441E-10 -0.05
vt -0.1913417 -0.025
vt -0.1913417 0.025
vt 0.1913417 -0.025
vt 0.1913417 0.025
vt -0.5 0
vt -0.3535534 0.3535534
vt 0.5 0
vt 0.3535534 0.3535534
vt 2.185569E-08 0.5
vt 0.3535534 -0.3535534
vt -0.3535534 -0.3535534
vt -5.96244E-09 -0.5

vn -0.4619398 0 0.1913417
vn 0.4619398 0 -0.1913417
vn -0.1913417 0 0.4619398
vn 0.1913417 0 -0.4619398
vn 0.1913417 0 0.4619398
vn -0.1913418 0 -0.4619398
vn 0.4619398 0 0.1913417
vn -0.4619398 0 -0.1913417
vn 0 -0.5 0
vn 0 0.5 0
vn -0.1674554 -0.4352642 0.1802881
vn -0.1675138 -0.4359241 0.178623
vn -0.1675721 -0.4365839 0.1769578
vn -0.07266192 -0.1893106 0.4570358
vn -0.07315086 -0.1911906 0.4561695
vn -0.0736398 -0.1930707 0.4553031
vn 0.0722154 0.1893353 0.4570964
vn 0.07272236 0.1913802 0.4561576
vn 0.07322933 0.1934251 0.4552189
vn 0.1650794 0.4360362 0.1806135
vn 0.1651016 0.4368587 0.1785809
vn 0.1651239 0.4376812 0.1765482
vn 0.1645655 0.4362013 -0.1806838
vn 0.1650917 0.4368306 -0.1786589
vn 0.1656179 0.4374599 -0.176634
vn 0.0716906 0.1893631 -0.4571674
vn 0.07266504 0.1912163 -0.4562355
vn 0.07363948 0.1930696 -0.4553036
vn -0.07221509 -0.1893346 -0.4570967
vn -0.07310045 -0.1910475 -0.4562376
vn -0.07398582 -0.1927604 -0.4553784
vn -0.1671075 -0.4353761 -0.1803406
vn -0.1675063 -0.4359051 -0.1786762
vn -0.1679051 -0.4364341 -0.1770118
vn -0.4411621 -0.1570753 0.1752238
vn -0.4401041 -0.1562657 0.1785403
vn -0.4390461 -0.1554561 0.1818569
vn -0.1965908 -0.06960844 0.4544301
vn -0.1931246 -0.0678721 0.456156
vn -0.1896583 -0.06613576 0.4578819
vn 0.1972909 0.06879712 0.4542502
vn 0.1935061 0.06686888 0.4561385
vn 0.1897214 0.06494064 0.4580268
vn 0.4433787 0.1517657 0.1743059
vn 0.4420871 0.1506525 0.1784456
vn 0.4407954 0.1495392 0.1825854
vn 0.4438617 0.1505799 -0.1741049
vn 0.4421514 0.1506698 -0.1782709
vn 0.440441 0.1507597 -0.1824369
vn 0.1981396 0.06782182 -0.4540274
vn 0.1938995 0.06697902 -0.4559544
vn 0.1896594 0.06613623 -0.4578814
vn -0.1972896 -0.06879714 -0.4542508
vn -0.1934475 -0.06796603 -0.4560045
vn -0.1896055 -0.06713492 -0.4577583
vn -0.4414814 -0.1563184 -0.1750966
vn -0.4401454 -0.1562779 -0.1784275
vn -0.4388094 -0.1562375 -0.1817585
vn -0.4335221 0.1726672 0.1795679
vn -0.4382787 0.1729778 0.1667432
vn -0.4430353 0.1732885 0.1539184
vn -0.1892314 0.07401609 0.4568513
vn -0.205629 0.0782239 0.4486012
vn -0.2220267 0.08243171 0.4403512
vn 0.1894394 -0.0703332 0.4573467
vn 0.2082113 -0.07450906 0.4479262
vn 0.2269832 -0.07868493 0.4385058
vn 0.4399285 -0.1525032 0.1822242
vn 0.446395 -0.1520259 0.1651888
vn 0.4528615 -0.1515485 0.1481535
vn 0.4413283 -0.1476891 -0.1828039
vn 0.4460786 -0.1519857 -0.1661166
vn 0.450829 -0.1562822 -0.1494292
vn 0.189679 -0.06575339 -0.4579284
vn 0.2058501 -0.07409157 -0.4491413
vn 0.2220213 -0.08242975 -0.4403543
vn -0.1894365 0.07033219 -0.457348
vn -0.2037933 0.0778297 -0.4495415
vn -0.2181502 0.08532722 -0.441735
vn -0.4344444 0.1699282 -0.1799513
vn -0.4380962 0.1729359 -0.1672779
vn -0.4417481 0.1759435 -0.1546045
vn -0.1661716 0.4318972 0.1893457
vn -0.1673438 0.433405 0.1847467
vn -0.168516 0.4349128 0.1801478
vn -0.06983645 0.1802364 0.4611265
vn -0.07224643 0.1847163 0.4589441
vn -0.07465641 0.1891962 0.4567617
vn 0.07089191 -0.1796553 0.4611923
vn 0.07351684 -0.1843826 0.4588722
vn 0.07614177 -0.1891099 0.4565522
vn 0.1727809 -0.4291294 0.1897227
vn 0.1742412 -0.4308044 0.1844306
vn 0.1757014 -0.4324794 0.1791385
vn 0.1741097 -0.4285615 -0.1897917
vn 0.1742156 -0.4307582 -0.1845647
vn 0.1743217 -0.4329549 -0.1793376
vn 0.07207233 -0.1790026 -0.4612631
vn 0.07336442 -0.1840997 -0.4590122
vn 0.07465652 -0.1891969 -0.4567614
vn -0.07089134 0.1796536 -0.461193
vn -0.07211433 0.1844629 -0.4590684
vn -0.07333733 0.1892722 -0.4569438
vn -0.1671859 0.4314801 -0.1894038
vn -0.1673255 0.4333698 -0.184847
vn -0.1674652 0.4352596 -0.1802901
vn 0.5 3.576343E-06 4.419269E-06

usemtl White
f 33/105/107 73/106/107 35/107/107
f 35/107/107 73/106/107 37/110/107
f 37/110/107 73/106/107 39/109/107
f 39/109/107 73/106/107 41/108/107
f 41/108/107 73/106/107 43/111/107
f 43/111/107 73/106/107 45/113/107
f 45/113/107 73/106/107 47/112/107
f 47/112/107 73/106/107 33/105/107
f 66/109/107 74/106/107 65/108/107
f 67/110/107 74/106/107 66/109/107
f 68/107/107 74/106/107 67/110/107
f 69/105/107 74/106/107 68/107/107
f 70/112/107 74/106/107 69/105/107
f 71/113/107 74/106/107 70/112/107
f 72/111/107 74/106/107 71/113/107
f 65/108/107 74/106/107 72/111/107
f 75/118/9 91/106/9 77/119/9
f 77/119/9 91/106/9 79/122/9
f 79/122/9 91/106/9 81/121/9
f 81/121/9 91/106/9 83/120/9
f 83/120/9 91/106/9 85/123/9
f 85/123/9 91/106/9 87/125/9
f 87/125/9 91/106/9 89/124/9
f 89/124/9 91/106/9 75/118/9
f 78/121/10 92/106/10 76/120/10
f 80/122/10 92/106/10 78/121/10
f 82/119/10 92/106/10 80/122/10
f 84/118/10 92/106/10 82/119/10
f 86/124/10 92/106/10 84/118/10
f 88/125/10 92/106/10 86/124/10
f 90/123/10 92/106/10 88/125/10
f 76/120/10 92/106/10 90/123/10
f 4/4/1 2/2/1 1/1/1
f 1/1/1 3/3/1 4/4/1
f 8/8/2 6/6/2 5/5/2
f 5/5/2 7/7/2 8/8/2
f 3/12/3 1/10/3 9/9/3
f 9/9/3 10/11/3 3/12/3
f 12/16/4 11/14/4 6/13/4
f 6/13/4 8/15/4 12/16/4
f 10/20/5 9/18/5 13/17/5
f 13/17/5 14/19/5 10/20/5
f 16/24/6 15/22/6 11/21/6
f 11/21/6 12/23/6 16/24/6
f 14/28/7 13/26/7 17/25/7
f 17/25/7 18/27/7 14/28/7
f 20/32/8 19/30/8 15/29/8
f 15/29/8 16/31/8 20/32/8
f 18/36/2 17/34/2 21/33/2
f 21/33/2 22/35/2 18/36/2
f 24/40/1 23/38/1 19/37/1
f 19/37/1 20/39/1 24/40/1
f 22/44/4 21/42/4 25/41/4
f 25/41/4 26/43/4 22/44/4
f 28/48/3 27/46/3 23/45/3
f 23/45/3 24/47/3 28/48/3
f 26/52/6 25/50/6 29/49/6
f 29/49/6 30/51/6 26/52/6
f 32/54/5 31/53/5 27/22/5
f 27/22/5 28/24/5 32/54/5
f 30/58/8 29/56/8 2/55/8
f 2/55/8 4/57/8 30/58/8
f 7/62/7 5/60/7 31/59/7
f 31/59/7 32/61/7 7/62/7
f 6/66/9 1/64/9 2/63/9
f 2/63/9 5/65/9 6/66/9
f 7/70/10 4/68/10 3/67/10
f 3/67/10 8/69/10 7/70/10
f 11/72/9 9/71/9 1/64/9
f 1/64/9 6/66/9 11/72/9
f 8/69/10 3/67/10 10/73/10
f 10/73/10 12/74/10 8/69/10
f 15/76/9 13/75/9 9/71/9
f 9/71/9 11/72/9 15/76/9
f 12/74/10 10/73/10 14/77/10
f 14/77/10 16/78/10 12/74/10
f 19/80/9 17/79/9 13/75/9
f 13/75/9 15/76/9 19/80/9
f 16/78/10 14/77/10 18/81/10
f 18/81/10 20/82/10 16/78/10
f 23/84/9 21/83/9 17/79/9
f 17/79/9 19/80/9 23/84/9
f 20/82/10 18/81/10 22/85/10
f 22/85/10 24/86/10 20/82/10
f 27/88/9 25/87/9 21/83/9
f 21/83/9 23/84/9 27/88/9
f 24/86/10 22/85/10 26/89/10
f 26/89/10 28/90/10 24/86/10
f 31/92/9 29/91/9 25/87/9
f 25/87/9 27/88/9 31/92/9
f 28/90/10 26/89/10 30/93/10
f 30/93/10 32/94/10 28/90/10
f 5/65/9 2/63/9 29/91/9
f 29/91/9 31/92/9 5/65/9
f 32/94/10 30/93/10 4/68/10
f 4/68/10 7/70/10 32/94/10
f 36/98/13 34/96/12 33/95/11
f 33/95/11 35/97/12 36/98/13
f 38/98/16 36/96/15 35/95/14
f 35/95/14 37/97/15 38/98/16
f 40/98/19 38/96/18 37/95/17
f 37/95/17 39/97/18 40/98/19
f 42/98/22 40/96/21 39/95/20
f 39/95/20 41/97/21 42/98/22
f 44/98/25 42/96/24 41/95/23
f 41/95/23 43/97/24 44/98/25
f 46/98/28 44/96/27 43/95/26
f 43/95/26 45/97/27 46/98/28
f 48/98/31 46/96/30 45/95/29
f 45/95/29 47/97/30 48/98/31
f 34/98/34 48/96/33 47/95/32
f 47/95/32 33/97/33 34/98/34
f 50/100/37 49/99/36 34/96/35
f 34/96/35 36/98/36 50/100/37
f 51/100/40 50/99/39 36/96/38
f 36/96/38 38/98/39 51/100/40
f 52/100/43 51/99/42 38/96/41
f 38/96/41 40/98/42 52/100/43
f 53/100/46 52/99/45 40/96/44
f 40/96/44 42/98/45 53/100/46
f 54/100/49 53/99/48 42/96/47
f 42/96/47 44/98/48 54/100/49
f 55/100/52 54/99/51 44/96/50
f 44/96/50 46/98/51 55/100/52
f 56/100/55 55/99/54 46/96/53
f 46/96/53 48/98/54 56/100/55
f 49/100/58 56/99/57 48/96/56
f 48/96/56 34/98/57 49/100/58
f 58/102/61 57/101/60 49/99/59
f 49/99/59 50/100/60 58/102/61
f 59/102/64 58/101/63 50/99/62
f 50/99/62 51/100/63 59/102/64
f 60/102/67 59/101/66 51/99/65
f 51/99/65 52/100/66 60/102/67
f 61/102/70 60/101/69 52/99/68
f 52/99/68 53/100/69 61/102/70
f 62/102/73 61/101/72 53/99/71
f 53/99/71 54/100/72 62/102/73
f 63/102/76 62/101/75 54/99/74
f 54/99/74 55/100/75 63/102/76
f 64/102/79 63/101/78 55/99/77
f 55/99/77 56/100/78 64/102/79
f 57/102/82 64/101/81 56/99/80
f 56/99/80 49/100/81 57/102/82
f 66/104/85 65/103/84 57/101/83
f 57/101/83 58/102/84 66/104/85
f 67/104/88 66/103/87 58/101/86
f 58/101/86 59/102/87 67/104/88
f 68/104/91 67/103/90 59/101/89
f 59/101/89 60/102/90 68/104/91
f 69/104/94 68/103/93 60/101/92
f 60/101/92 61/102/93 69/104/94
f 70/104/97 69/103/96 61/101/95
f 61/101/95 62/102/96 70/104/97
f 71/104/100 70/103/99 62/101/98
f 62/101/98 63/102/99 71/104/100
f 72/104/103 71/103/102 63/101/101
f 63/101/101 64/102/102 72/104/103
f 65/104/106 72/103/105 64/101/104
f 64/101/104 57/102/105 65/104/106
f 78/117/1 76/115/1 75/114/1
f 75/114/1 77/116/1 78/117/1
f 80/117/3 78/115/3 77/114/3
f 77/114/3 79/116/3 80/117/3
f 82/117/5 80/115/5 79/114/5
f 79/114/5 81/116/5 82/117/5
f 84/117/7 82/115/7 81/114/7
f 81/114/7 83/116/7 84/117/7
f 86/117/2 84/115/2 83/114/2
f 83/114/2 85/116/2 86/117/2
f 88/117/4 86/115/4 85/114/4
f 85/114/4 87/116/4 88/117/4
f 90/117/6 88/115/6 87/114/6
f 87/114/6 89/116/6 90/117/6
f 76/117/8 90/115/8 89/114/8
f 89/114/8 75/116/8 76/117/8

